<svg version="1.1" xmlns="http://www.w3.org/2000/svg" xmlns:xlink="http://www.w3.org/1999/xlink" width="400" height="400" viewBox="0 0 400 400"><defs/><g><rect fill="rgb(255,255,255)" stroke="none" x="0" y="0" width="400" height="400" transform="matrix(1 0 0 1 0 0)" fill-opacity="1"/><path fill="rgb(255,255,255)" stroke="rgb(255,0,0)" paint-order="fill stroke markers" d=" M 120 10 L 151.6 10 L 151.6 41.599999999999994 L 120 41.599999999999994 L 120 10 Z" fill-opacity="1" stroke-opacity="1" stroke-linecap="round" stroke-miterlimit="10" stroke-dasharray=""/><path fill="rgb(255,255,255)" stroke="rgb(255,0,0)" paint-order="fill stroke markers" d=" M 114.04137616498186 52.149444123567676 L 144.5813863405239 63.2650987816519 L 133.46573168243967 93.80510895719394 L 102.92572150689763 82.6894542991097 L 114.04137616498186 52.149444123567676 Z" fill-opacity="1" stroke-opacity="1" stroke-linecap="round" stroke-miterlimit="10" stroke-dasharray=""/><path fill="rgb(255,255,255)" stroke="rgb(255,0,0)" paint-order="fill stroke markers" d=" M 93.15790150860177 91.2228336904399 L 118.74378590877564 112.69193985397033 L 97.27467974524522 138.27782425414418 L 71.68879534507136 116.80871809061375 L 93.15790150860177 91.2228336904399 Z" fill-opacity="1" stroke-opacity="1" stroke-linecap="round" stroke-miterlimit="10" stroke-dasharray=""/><path fill="rgb(255,255,255)" stroke="rgb(255,0,0)" paint-order="fill stroke markers" d=" M 58.839745962155625 121.91342951089922 L 75.98974596215564 151.61810086070548 L 46.28507461234939 168.7681008607055 L 29.135074612349385 139.06342951089923 L 58.839745962155625 121.91342951089922 Z" fill-opacity="1" stroke-opacity="1" stroke-linecap="round" stroke-miterlimit="10" stroke-dasharray=""/><path fill="rgb(255,255,255)" stroke="rgb(255,0,0)" paint-order="fill stroke markers" d=" M 14.462667343248183 139.60956719837847 L 20.575083197124137 174.27480010440817 L -14.090149708905596 180.38721595828412 L -20.202565562781547 145.72198305225442 L 14.462667343248183 139.60956719837847 Z" fill-opacity="1" stroke-opacity="1" stroke-linecap="round" stroke-miterlimit="10" stroke-dasharray=""/><path fill="rgb(255,255,255)" stroke="rgb(255,0,0)" paint-order="fill stroke markers" d=" M -35.02706329182696 141.0606424101009 L -41.29576250560314 176.61220229384162 L -76.84732238934384 170.34350308006543 L -70.57862317556767 134.79194319632472 L -35.02706329182696 141.0606424101009 Z" fill-opacity="1" stroke-opacity="1" stroke-linecap="round" stroke-miterlimit="10" stroke-dasharray=""/><path fill="rgb(255,255,255)" stroke="rgb(255,0,0)" paint-order="fill stroke markers" d=" M -83.66025403784437 124.90381056766586 L -102.16025403784437 156.9467505076901 L -134.2031939778686 138.4467505076901 L -115.70319397786861 106.40381056766586 L -83.66025403784437 124.90381056766586 Z" fill-opacity="1" stroke-opacity="1" stroke-linecap="round" stroke-miterlimit="10" stroke-dasharray=""/><path fill="rgb(255,255,255)" stroke="rgb(255,0,0)" paint-order="fill stroke markers" d=" M -125.164764780307 91.9716350702239 L -154.19784917451628 116.33328547734376 L -178.55949958163615 87.30020108313448 L -149.52641518742686 62.93855067601462 L -125.164764780307 91.9716350702239 Z" fill-opacity="1" stroke-opacity="1" stroke-linecap="round" stroke-miterlimit="10" stroke-dasharray=""/><path fill="rgb(255,255,255)" stroke="rgb(255,0,0)" paint-order="fill stroke markers" d=" M -153.77102075900208 45.32629672424799 L -190.23109444549533 58.59667828528395 L -203.50147600653128 22.136604598790697 L -167.04140232003803 8.866223037754736 L -153.77102075900208 45.32629672424799 Z" fill-opacity="1" stroke-opacity="1" stroke-linecap="round" stroke-miterlimit="10" stroke-dasharray=""/><path fill="rgb(255,255,255)" stroke="rgb(255,0,0)" paint-order="fill stroke markers" d=" M -165.00000000000009 -9.99999999999994 L -204.70000000000007 -9.999999999999924 L -204.7000000000001 -49.699999999999946 L -165.0000000000001 -49.69999999999996 L -165.00000000000009 -9.99999999999994 Z" fill-opacity="1" stroke-opacity="1" stroke-linecap="round" stroke-miterlimit="10" stroke-dasharray=""/><path fill="rgb(255,255,255)" stroke="rgb(255,0,0)" paint-order="fill stroke markers" d=" M -156.32754410034784 -67.54035057322274 L -194.47906450425575 -81.42636839224488 L -180.59304668523362 -119.57788879615278 L -142.4415262813257 -105.69187097713063 L -156.32754410034784 -67.54035057322274 Z" fill-opacity="1" stroke-opacity="1" stroke-linecap="round" stroke-miterlimit="10" stroke-dasharray=""/><path fill="rgb(255,255,255)" stroke="rgb(255,0,0)" paint-order="fill stroke markers" d=" M -127.62990144895588 -120.14827612633418 L -159.4207458383935 -146.82396192832556 L -132.7450600364021 -178.6148063177632 L -100.95421564696449 -151.9391205157718 L -127.62990144895588 -120.14827612633418 Z" fill-opacity="1" stroke-opacity="1" stroke-linecap="round" stroke-miterlimit="10" stroke-dasharray=""/><path fill="rgb(255,255,255)" stroke="rgb(255,0,0)" paint-order="fill stroke markers" d=" M -81.33974596215572 -160.88457268119902 L -102.53974596215576 -197.60404980165922 L -65.82026884169554 -218.80404980165926 L -44.62026884169551 -182.08457268119906 L -81.33974596215572 -160.88457268119902 Z" fill-opacity="1" stroke-opacity="1" stroke-linecap="round" stroke-miterlimit="10" stroke-dasharray=""/><path fill="rgb(255,255,255)" stroke="rgb(255,0,0)" paint-order="fill stroke markers" d=" M -22.27683533826013 -183.9259160839279 L -29.795801431238242 -226.56809178935654 L 12.846374274190389 -234.08705788233465 L 20.3653403671685 -191.444882176906 L -22.27683533826013 -183.9259160839279 Z" fill-opacity="1" stroke-opacity="1" stroke-linecap="round" stroke-miterlimit="10" stroke-dasharray=""/><path fill="rgb(255,255,255)" stroke="rgb(255,0,0)" paint-order="fill stroke markers" d=" M 42.84123128683878 -185.37699129565036 L 50.51648073971708 -228.90549397879 L 94.0449834228567 -221.2302445259117 L 86.3697339699784 -177.70174184277207 L 42.84123128683878 -185.37699129565036 Z" fill-opacity="1" stroke-opacity="1" stroke-linecap="round" stroke-miterlimit="10" stroke-dasharray=""/><path fill="rgb(255,255,255)" stroke="rgb(255,0,0)" paint-order="fill stroke markers" d=" M 106.16025403784437 -163.8749537379657 L 128.71025403784435 -202.93269944864394 L 167.76799974852258 -180.38269944864396 L 145.21799974852257 -141.32495373796573 L 106.16025403784437 -163.8749537379657 Z" fill-opacity="1" stroke-opacity="1" stroke-linecap="round" stroke-miterlimit="10" stroke-dasharray=""/><path fill="rgb(255,255,255)" stroke="rgb(255,0,0)" paint-order="fill stroke markers" d=" M 159.63676472066103 -120.89707750611826 L 194.87480910413404 -150.46530755169914 L 224.4430391497149 -115.22726316822613 L 189.2049947662419 -85.65903312264527 L 159.63676472066103 -120.89707750611826 Z" fill-opacity="1" stroke-opacity="1" stroke-linecap="round" stroke-miterlimit="10" stroke-dasharray=""/><path fill="rgb(255,255,255)" stroke="rgb(255,0,0)" paint-order="fill stroke markers" d=" M 196.05718869436802 -60.71720317390318 L 240.12877260922716 -76.7579478958771 L 256.16951733120106 -32.68636398101796 L 212.09793341634193 -16.645619259044054 L 196.05718869436802 -60.71720317390318 Z" fill-opacity="1" stroke-opacity="1" stroke-linecap="round" stroke-miterlimit="10" stroke-dasharray=""/><path fill="rgb(255,255,255)" stroke="rgb(255,0,0)" paint-order="fill stroke markers" d=" M 210.00000000000014 9.999999999999861 L 257.8000000000002 9.999999999999828 L 257.80000000000024 57.79999999999986 L 210.00000000000017 57.7999999999999 L 210.00000000000014 9.999999999999861 Z" fill-opacity="1" stroke-opacity="1" stroke-linecap="round" stroke-miterlimit="10" stroke-dasharray=""/><path fill="rgb(255,255,255)" stroke="rgb(255,0,0)" paint-order="fill stroke markers" d=" M 198.6137120357138 82.9312570228778 L 244.37674266798757 99.58763800283785 L 227.72036168802754 145.35066863511165 L 181.95733105575377 128.69428765515158 L 198.6137120357138 82.9312570228778 Z" fill-opacity="1" stroke-opacity="1" stroke-linecap="round" stroke-miterlimit="10" stroke-dasharray=""/><path fill="rgb(255,255,255)" stroke="rgb(255,0,0)" paint-order="fill stroke markers" d=" M 162.10190138931003 149.07371856222846 L 200.0977057680114 180.95598400268082 L 168.21544032755904 218.9517883813822 L 130.21963594885767 187.06952294092983 L 162.10190138931003 149.07371856222846 Z" fill-opacity="1" stroke-opacity="1" stroke-linecap="round" stroke-miterlimit="10" stroke-dasharray=""/><path fill="rgb(255,255,255)" stroke="rgb(255,0,0)" paint-order="fill stroke markers" d=" M 103.83974596215583 199.8557158514988 L 129.0897459621559 243.58999874261295 L 85.35546307104173 268.83999874261303 L 60.10546307104167 225.10571585149887 L 103.83974596215583 199.8557158514988 Z" fill-opacity="1" stroke-opacity="1" stroke-linecap="round" stroke-miterlimit="10" stroke-dasharray=""/><path fill="rgb(255,255,255)" stroke="rgb(255,0,0)" paint-order="fill stroke markers" d=" M 30.091003333272084 228.24226496947736 L 39.01651966535234 278.8613834743049 L -11.602598839475185 287.7868998063851 L -20.52811517155544 237.16778130155765 L 30.091003333272084 228.24226496947736 Z" fill-opacity="1" stroke-opacity="1" stroke-linecap="round" stroke-miterlimit="10" stroke-dasharray=""/><path fill="rgb(255,255,255)" stroke="rgb(255,0,0)" paint-order="fill stroke markers" d=" M -50.655399281850585 229.69334018119986 L -59.73719897383101 281.1987856637384 L -111.24264445636955 272.11698597175797 L -102.16084476438911 220.61154048921946 L -50.655399281850585 229.69334018119986 Z" fill-opacity="1" stroke-opacity="1" stroke-linecap="round" stroke-miterlimit="10" stroke-dasharray=""/><path fill="rgb(255,255,255)" stroke="rgb(255,0,0)" paint-order="fill stroke markers" d=" M -128.66025403784437 202.84609690826562 L -155.26025403784433 248.91864838959782 L -201.33280551917653 222.31864838959785 L -174.73280551917657 176.24609690826566 L -128.66025403784437 202.84609690826562 Z" fill-opacity="1" stroke-opacity="1" stroke-linecap="round" stroke-miterlimit="10" stroke-dasharray=""/><path fill="rgb(255,255,255)" stroke="rgb(255,0,0)" paint-order="fill stroke markers" d=" M -194.1087646610151 149.82251994201272 L -235.55176903375187 184.5973296260546 L -270.3265787177937 143.1543252533179 L -228.88357434505693 108.379515569276 L -194.1087646610151 149.82251994201272 Z" fill-opacity="1" stroke-opacity="1" stroke-linecap="round" stroke-miterlimit="10" stroke-dasharray=""/><path fill="rgb(255,255,255)" stroke="rgb(255,0,0)" paint-order="fill stroke markers" d=" M -238.343356629734 76.10810962355842 L -290.026450772959 94.91921750647026 L -308.83755865587085 43.23612336324526 L -257.15446451264586 24.42501548033342 L -238.343356629734 76.10810962355842 Z" fill-opacity="1" stroke-opacity="1" stroke-linecap="round" stroke-miterlimit="10" stroke-dasharray=""/><path fill="rgb(255,255,255)" stroke="rgb(255,0,0)" paint-order="fill stroke markers" d=" M -255.00000000000028 -9.999999999999751 L -310.9000000000003 -9.999999999999694 L -310.9000000000004 -65.89999999999976 L -255.00000000000034 -65.89999999999982 L -255.00000000000028 -9.999999999999751 Z" fill-opacity="1" stroke-opacity="1" stroke-linecap="round" stroke-miterlimit="10" stroke-dasharray=""/><path fill="rgb(255,255,255)" stroke="rgb(255,0,0)" paint-order="fill stroke markers" d=" M -240.89987997107986 -98.32216347253282 L -294.2744208317195 -117.74890761343077 L -274.8476766908216 -171.12344847407047 L -221.47313583018192 -151.6967043331725 L -240.89987997107986 -98.32216347253282 Z" fill-opacity="1" stroke-opacity="1" stroke-linecap="round" stroke-miterlimit="10" stroke-dasharray=""/><path fill="rgb(255,255,255)" stroke="rgb(255,0,0)" paint-order="fill stroke markers" d=" M -196.57390132966418 -177.9991609981227 L -240.7746656976293 -215.088006077036 L -203.68582061871598 -259.2887704450011 L -159.48505625075086 -222.19992536608783 L -196.57390132966418 -177.9991609981227 Z" fill-opacity="1" stroke-opacity="1" stroke-linecap="round" stroke-miterlimit="10" stroke-dasharray=""/><path fill="rgb(255,255,255)" stroke="rgb(255,0,0)" paint-order="fill stroke markers" d=" M -126.339745962156 -238.8268590217986 L -155.6397459621561 -289.5759476835667 L -104.89065730038796 -318.87594768356684 L -75.59065730038786 -268.1268590217987 L -126.339745962156 -238.8268590217986 Z" fill-opacity="1" stroke-opacity="1" stroke-linecap="round" stroke-miterlimit="10" stroke-dasharray=""/><path fill="rgb(255,255,255)" stroke="rgb(255,0,0)" paint-order="fill stroke markers" d=" M -37.90517132828406 -272.55861385502686 L -48.237237899466486 -331.1546751592533 L 10.35882340475996 -341.4867417304357 L 20.690889975942383 -282.89068042620926 L -37.90517132828406 -272.55861385502686 Z" fill-opacity="1" stroke-opacity="1" stroke-linecap="round" stroke-miterlimit="10" stroke-dasharray=""/><path fill="rgb(255,255,255)" stroke="rgb(255,0,0)" paint-order="fill stroke markers" d=" M 58.46956727686241 -274.0096890667494 L 68.95791720794496 -333.49207734868685 L 128.4403054898824 -323.0037274176043 L 117.95195555879988 -263.52133913566684 L 58.46956727686241 -274.0096890667494 Z" fill-opacity="1" stroke-opacity="1" stroke-linecap="round" stroke-miterlimit="10" stroke-dasharray=""/><path fill="rgb(255,255,255)" stroke="rgb(255,0,0)" paint-order="fill stroke markers" d=" M 151.16025403784437 -241.81724007856553 L 181.81025403784437 -294.9045973305517 L 234.89761128983056 -264.25459733055175 L 204.24761128983056 -211.16724007856556 L 151.16025403784437 -241.81724007856553 Z" fill-opacity="1" stroke-opacity="1" stroke-linecap="round" stroke-miterlimit="10" stroke-dasharray=""/><path fill="rgb(255,255,255)" stroke="rgb(255,0,0)" paint-order="fill stroke markers" d=" M 228.5807646013692 -178.74796237790719 L 276.22872896336963 -218.72935170041004 L 316.21011828587245 -171.0813873384096 L 268.562153923872 -131.09999801590675 L 228.5807646013692 -178.74796237790719 Z" fill-opacity="1" stroke-opacity="1" stroke-linecap="round" stroke-miterlimit="10" stroke-dasharray=""/><path fill="rgb(255,255,255)" stroke="rgb(255,0,0)" paint-order="fill stroke markers" d=" M 280.6295245651 -91.4990160732137 L 339.9241289366909 -113.08048711706351 L 361.5055999805407 -53.78588274547265 L 302.21099560894976 -32.20441170162283 L 280.6295245651 -91.4990160732137 Z" fill-opacity="1" stroke-opacity="1" stroke-linecap="round" stroke-miterlimit="10" stroke-dasharray=""/><path fill="rgb(255,255,255)" stroke="rgb(255,0,0)" paint-order="fill stroke markers" d=" M 300.00000000000045 9.999999999999588 L 364.00000000000057 9.999999999999497 L 364.0000000000006 73.99999999999959 L 300.0000000000005 73.99999999999967 L 300.00000000000045 9.999999999999588 Z" fill-opacity="1" stroke-opacity="1" stroke-linecap="round" stroke-miterlimit="10" stroke-dasharray=""/><path fill="rgb(255,255,255)" stroke="rgb(255,0,0)" paint-order="fill stroke markers" d=" M 283.18604790644594 113.7130699221878 L 344.17209899545145 135.9101772240236 L 321.9749916936156 196.8962283130292 L 260.9889406046101 174.69912101119337 L 283.18604790644594 113.7130699221878 Z" fill-opacity="1" stroke-opacity="1" stroke-linecap="round" stroke-miterlimit="10" stroke-dasharray=""/><path fill="rgb(255,255,255)" stroke="rgb(255,0,0)" paint-order="fill stroke markers" d=" M 231.0459012700184 206.92460343401694 L 281.4516256272472 249.2200281513912 L 239.15620090987292 299.6257525086201 L 188.75047655264407 257.33032779124585 L 231.0459012700184 206.92460343401694 Z" fill-opacity="1" stroke-opacity="1" stroke-linecap="round" stroke-miterlimit="10" stroke-dasharray=""/><path fill="rgb(255,255,255)" stroke="rgb(255,0,0)" paint-order="fill stroke markers" d=" M 148.83974596215617 277.79800219209835 L 182.18974596215628 335.5618966245204 L 124.42585152973417 368.9118966245205 L 91.07585152973407 311.1480021920985 L 148.83974596215617 277.79800219209835 Z" fill-opacity="1" stroke-opacity="1" stroke-linecap="round" stroke-miterlimit="10" stroke-dasharray=""/><path fill="rgb(255,255,255)" stroke="rgb(255,0,0)" paint-order="fill stroke markers" d=" M 45.719339323296055 316.87496274057634 L 57.45795613358064 383.4479668442017 L -9.115047970044728 395.1865836544863 L -20.85366478032931 328.61357955086095 L 45.719339323296055 316.87496274057634 Z" fill-opacity="1" stroke-opacity="1" stroke-linecap="round" stroke-miterlimit="10" stroke-dasharray=""/><path fill="rgb(255,255,255)" stroke="rgb(255,0,0)" paint-order="fill stroke markers" d=" M -66.2837352718742 318.3260379522989 L -78.17863544205888 385.78536903363533 L -145.63796652339528 373.8904688634507 L -133.7430663532106 306.43113778211426 L -66.2837352718742 318.3260379522989 Z" fill-opacity="1" stroke-opacity="1" stroke-linecap="round" stroke-miterlimit="10" stroke-dasharray=""/><path fill="rgb(255,255,255)" stroke="rgb(255,0,0)" paint-order="fill stroke markers" d=" M -173.66025403784437 280.7883832488655 L -208.36025403784436 340.8905462715057 L -268.46241706048454 306.19054627150575 L -233.76241706048458 246.08838324886554 L -173.66025403784437 280.7883832488655 Z" fill-opacity="1" stroke-opacity="1" stroke-linecap="round" stroke-miterlimit="10" stroke-dasharray=""/><path fill="rgb(255,255,255)" stroke="rgb(255,0,0)" paint-order="fill stroke markers" d=" M -263.05276454172326 207.67340481380174 L -316.9056888929875 252.86137377476564 L -362.09365785395136 199.00844942350147 L -308.24073350268714 153.82048046253755 L -263.05276454172326 207.67340481380174 Z" fill-opacity="1" stroke-opacity="1" stroke-linecap="round" stroke-miterlimit="10" stroke-dasharray=""/><path fill="rgb(255,255,255)" stroke="rgb(255,0,0)" paint-order="fill stroke markers" d=" M -322.91569250046604 106.88992252286906 L -389.8218071004228 131.24175672765685 L -414.17364130521054 64.3356421277001 L -347.2675267052538 39.98380792291232 L -322.91569250046604 106.88992252286906 Z" fill-opacity="1" stroke-opacity="1" stroke-linecap="round" stroke-miterlimit="10" stroke-dasharray=""/><path fill="rgb(255,255,255)" stroke="rgb(255,0,0)" paint-order="fill stroke markers" d=" M -120.00000000000026 -9.999999999999796 L -151.6000000000003 -9.999999999999739 L -151.60000000000036 -41.59999999999979 L -120.0000000000003 -41.599999999999845 L -120.00000000000026 -9.999999999999796 Z" fill-opacity="1" stroke-opacity="1" stroke-linecap="round" stroke-miterlimit="10" stroke-dasharray=""/><path fill="rgb(255,255,255)" stroke="rgb(255,0,0)" paint-order="fill stroke markers" d=" M -114.04137616498217 -52.14944412356756 L -144.58138634052426 -63.26509878165176 L -133.46573168244007 -93.80510895719385 L -102.92572150689796 -82.68945429910966 L -114.04137616498217 -52.14944412356756 Z" fill-opacity="1" stroke-opacity="1" stroke-linecap="round" stroke-miterlimit="10" stroke-dasharray=""/><path fill="rgb(255,255,255)" stroke="rgb(255,0,0)" paint-order="fill stroke markers" d=" M -93.15790150860207 -91.22283369043987 L -118.74378590877602 -112.69193985397028 L -97.27467974524559 -138.27782425414424 L -71.68879534507164 -116.80871809061384 L -93.15790150860207 -91.22283369043987 Z" fill-opacity="1" stroke-opacity="1" stroke-linecap="round" stroke-miterlimit="10" stroke-dasharray=""/><path fill="rgb(255,255,255)" stroke="rgb(255,0,0)" paint-order="fill stroke markers" d=" M -58.83974596215592 -121.91342951089933 L -75.98974596215601 -151.6181008607056 L -46.285074612349725 -168.7681008607057 L -29.135074612349634 -139.06342951089943 L -58.83974596215592 -121.91342951089933 Z" fill-opacity="1" stroke-opacity="1" stroke-linecap="round" stroke-miterlimit="10" stroke-dasharray=""/><path fill="rgb(255,255,255)" stroke="rgb(255,0,0)" paint-order="fill stroke markers" d=" M -14.462667343248407 -139.60956719837867 L -20.57508319712442 -174.27480010440846 L 14.090149708905372 -180.3872159582845 L 20.202565562781384 -145.7219830522547 L -14.462667343248407 -139.60956719837867 Z" fill-opacity="1" stroke-opacity="1" stroke-linecap="round" stroke-miterlimit="10" stroke-dasharray=""/><path fill="rgb(255,255,255)" stroke="rgb(255,0,0)" paint-order="fill stroke markers" d=" M 35.02706329182684 -141.06064241010122 L 41.29576250560299 -176.61220229384202 L 76.84732238934379 -170.3435030800659 L 70.57862317556763 -134.7919431963251 L 35.02706329182684 -141.06064241010122 Z" fill-opacity="1" stroke-opacity="1" stroke-linecap="round" stroke-miterlimit="10" stroke-dasharray=""/><path fill="rgb(255,255,255)" stroke="rgb(255,0,0)" paint-order="fill stroke markers" d=" M 83.66025403784437 -124.90381056766624 L 102.16025403784435 -156.94675050769055 L 134.2031939778687 -138.44675050769058 L 115.7031939778687 -106.40381056766627 L 83.66025403784437 -124.90381056766624 Z" fill-opacity="1" stroke-opacity="1" stroke-linecap="round" stroke-miterlimit="10" stroke-dasharray=""/><path fill="rgb(255,255,255)" stroke="rgb(255,0,0)" paint-order="fill stroke markers" d=" M 125.16476478030711 -91.97163507022427 L 154.19784917451642 -116.33328547734422 L 178.55949958163637 -87.30020108313497 L 149.52641518742706 -62.938550676015005 L 125.16476478030711 -91.97163507022427 Z" fill-opacity="1" stroke-opacity="1" stroke-linecap="round" stroke-miterlimit="10" stroke-dasharray=""/><path fill="rgb(255,255,255)" stroke="rgb(255,0,0)" paint-order="fill stroke markers" d=" M 153.7710207590023 -45.32629672424835 L 190.23109444549564 -58.59667828528441 L 203.50147600653168 -22.136604598791124 L 167.04140232003834 -8.866223037755063 L 153.7710207590023 -45.32629672424835 Z" fill-opacity="1" stroke-opacity="1" stroke-linecap="round" stroke-miterlimit="10" stroke-dasharray=""/></g></svg>